# xmcd
#
# Track frame offsets:
#	150
#	13097
#	28160
#	41097
#	52895
#	68560
#	84357
#	101415
#	116800
#	129325
#	146970
#	167445
#	286945
#
# Disc length: 4647 seconds
#
# Revision: 5
# Processed by: cddbd v1.5.2PL0 Copyright (c) Steve Scherf et al.
# Submitted via: EasyCDDAExtractor 15.3.0.1
#
DISCID=ad12250d
DTITLE=Selena - Amor Prohibido - 20 Years Of Music
DYEAR=2002
DGENRE=Latin
TTITLE0=Amor Prohibido
TTITLE1=No Me Queda Mas
TTITLE2=Cobarde
TTITLE3=Fotos Y Recuerdos
TTITLE4=El Chico Del Apartamento 512
TTITLE5=Bidi Bidi Bom Bom
TTITLE6=Techno Cumbia
TTITLE7=Tus Desprecios
TTITLE8=Si Una Vez
TTITLE9=Ya No
TTITLE10=Dondequiera Que Estes (Duet With Barrio Boyzz)
TTITLE11=Spoken Liner Notes By The Band And Family
TTITLE12=Data Track
EXTD=
EXTT0=
EXTT1=
EXTT2=
EXTT3=
EXTT4=
EXTT5=
EXTT6=
EXTT7=
EXTT8=
EXTT9=
EXTT10=
EXTT11=
EXTT12=
PLAYORDER=
